<svg width="33" height="33" viewBox="0 0 33 33" fill="none" xmlns="http://www.w3.org/2000/svg">
<g clip-path="url(#clip0_6_391)">
<path d="M28.6549 6.33876C27.9526 5.63614 27.1188 5.07877 26.201 4.6985C25.2833 4.31822 24.2996 4.1225 23.3062 4.1225C22.3128 4.1225 21.3291 4.31822 20.4113 4.6985C19.4935 5.07877 18.6597 5.63614 17.9574 6.33876L16.4999 7.79626L15.0424 6.33876C13.6238 4.92018 11.6998 4.12323 9.69367 4.12323C7.6875 4.12323 5.7635 4.92018 4.34492 6.33876C2.92634 7.75733 2.12939 9.68134 2.12939 11.6875C2.12939 13.6937 2.92634 15.6177 4.34492 17.0363L5.80242 18.4938L16.4999 29.1913L27.1974 18.4938L28.6549 17.0363C29.3575 16.334 29.9149 15.5001 30.2952 14.5824C30.6754 13.6646 30.8712 12.6809 30.8712 11.6875C30.8712 10.6941 30.6754 9.7104 30.2952 8.79264C29.9149 7.87489 29.3575 7.04105 28.6549 6.33876Z" stroke="black" stroke-width="5.33333" stroke-linecap="round" stroke-linejoin="round"/>
</g>
<defs>
<clipPath id="clip0_6_391">
<rect width="33" height="33" fill="white"/>
</clipPath>
</defs>
</svg>
