<svg width="235" height="76" viewBox="0 0 235 76" fill="none" xmlns="http://www.w3.org/2000/svg">
<rect x="3" y="3" width="229" height="70" stroke="black" stroke-width="6"/>
<path d="M17.5284 53V23.9091H29.0057C31.2027 23.9091 33.0777 24.3021 34.6307 25.0881C36.1932 25.8646 37.3816 26.9678 38.196 28.3977C39.0199 29.8182 39.4318 31.4896 39.4318 33.4119C39.4318 35.3437 39.0152 37.0057 38.1818 38.3977C37.3485 39.7803 36.1411 40.8409 34.5597 41.5795C32.9877 42.3182 31.0843 42.6875 28.8494 42.6875H21.1648V37.7443H27.8551C29.0294 37.7443 30.0047 37.5833 30.7812 37.2614C31.5578 36.9394 32.1354 36.4564 32.5142 35.8125C32.9025 35.1686 33.0966 34.3684 33.0966 33.4119C33.0966 32.446 32.9025 31.6316 32.5142 30.9688C32.1354 30.3059 31.553 29.804 30.767 29.4631C29.9905 29.1127 29.0104 28.9375 27.8267 28.9375H23.679V53H17.5284ZM33.2386 39.7614L40.4688 53H33.679L26.6051 39.7614H33.2386ZM56.7763 43.7102V31.1818H62.8274V53H57.0177V49.0369H56.7905C56.298 50.3153 55.4789 51.3428 54.3331 52.1193C53.1967 52.8958 51.8094 53.2841 50.1711 53.2841C48.7128 53.2841 47.4297 52.9527 46.3217 52.2898C45.2138 51.6269 44.3473 50.6847 43.7223 49.4631C43.1067 48.2415 42.7942 46.7784 42.7848 45.0739V31.1818H48.8359V43.9943C48.8454 45.2822 49.191 46.3002 49.8728 47.0483C50.5547 47.7964 51.4685 48.1705 52.6143 48.1705C53.3435 48.1705 54.0253 48.0047 54.6598 47.6733C55.2942 47.3324 55.8056 46.8305 56.1939 46.1676C56.5916 45.5047 56.7857 44.6856 56.7763 43.7102ZM76.6171 61.6364C74.6569 61.6364 72.976 61.3665 71.5745 60.8267C70.1825 60.2964 69.0745 59.572 68.2507 58.6534C67.4268 57.7348 66.8918 56.7027 66.6455 55.5568L72.2421 54.804C72.4126 55.2396 72.6825 55.6468 73.0518 56.0256C73.4211 56.4044 73.9088 56.7074 74.5149 56.9347C75.1304 57.1714 75.8785 57.2898 76.7592 57.2898C78.0755 57.2898 79.1597 56.9678 80.012 56.3239C80.8738 55.6894 81.3046 54.6241 81.3046 53.1278V49.1364H81.049C80.7838 49.7424 80.3861 50.3153 79.8558 50.8551C79.3255 51.3949 78.6436 51.8352 77.8103 52.1761C76.977 52.517 75.9827 52.6875 74.8274 52.6875C73.1891 52.6875 71.6976 52.3087 70.3529 51.5511C69.0177 50.7841 67.9524 49.6146 67.1569 48.0426C66.3709 46.4612 65.9779 44.4631 65.9779 42.0483C65.9779 39.5767 66.3804 37.5123 67.1853 35.8551C67.9902 34.1979 69.0603 32.9574 70.3955 32.1335C71.7402 31.3097 73.2128 30.8977 74.8132 30.8977C76.0347 30.8977 77.0575 31.1061 77.8813 31.5227C78.7052 31.9299 79.3681 32.4413 79.87 33.0568C80.3813 33.6629 80.7743 34.2595 81.049 34.8466H81.2762V31.1818H87.2847V53.2131C87.2847 55.0691 86.8302 56.6222 85.9211 57.8722C85.012 59.1222 83.7525 60.0597 82.1427 60.6847C80.5423 61.3191 78.7005 61.6364 76.6171 61.6364ZM76.745 48.142C77.7204 48.142 78.5442 47.9006 79.2166 47.4176C79.8984 46.9252 80.4192 46.2244 80.7791 45.3153C81.1484 44.3968 81.333 43.2983 81.333 42.0199C81.333 40.7415 81.1531 39.6335 80.7933 38.696C80.4334 37.7491 79.9126 37.0152 79.2308 36.4943C78.549 35.9735 77.7204 35.7131 76.745 35.7131C75.7507 35.7131 74.9126 35.983 74.2308 36.5227C73.549 37.053 73.0329 37.7917 72.6825 38.7386C72.3321 39.6856 72.1569 40.7794 72.1569 42.0199C72.1569 43.2794 72.3321 44.3684 72.6825 45.2869C73.0423 46.196 73.5584 46.9015 74.2308 47.4034C74.9126 47.8958 75.7507 48.142 76.745 48.142ZM91.2201 53V31.1818H97.0866V34.9886H97.3138C97.7116 33.6345 98.3792 32.6117 99.3167 31.9205C100.254 31.2197 101.334 30.8693 102.555 30.8693C102.858 30.8693 103.185 30.8883 103.535 30.9261C103.886 30.964 104.194 31.0161 104.459 31.0824V36.4517C104.175 36.3665 103.782 36.2907 103.28 36.2244C102.778 36.1581 102.319 36.125 101.902 36.125C101.012 36.125 100.216 36.3191 99.5155 36.7074C98.8243 37.0862 98.275 37.6165 97.8678 38.2983C97.4701 38.9801 97.2712 39.7661 97.2712 40.6562V53H91.2201ZM112.304 53.4119C110.912 53.4119 109.671 53.1705 108.582 52.6875C107.493 52.1951 106.632 51.4706 105.997 50.5142C105.372 49.5483 105.06 48.3456 105.06 46.9062C105.06 45.6941 105.282 44.6761 105.727 43.8523C106.172 43.0284 106.778 42.3655 107.545 41.8636C108.312 41.3617 109.184 40.983 110.159 40.7273C111.144 40.4716 112.176 40.2917 113.256 40.1875C114.525 40.0549 115.547 39.9318 116.324 39.8182C117.1 39.6951 117.664 39.5152 118.014 39.2784C118.364 39.0417 118.54 38.6913 118.54 38.2273V38.142C118.54 37.2424 118.256 36.5464 117.687 36.054C117.129 35.5616 116.333 35.3153 115.301 35.3153C114.212 35.3153 113.346 35.5568 112.702 36.0398C112.058 36.5133 111.632 37.1098 111.423 37.8295L105.827 37.375C106.111 36.0492 106.669 34.9034 107.503 33.9375C108.336 32.9621 109.411 32.214 110.727 31.6932C112.053 31.1629 113.587 30.8977 115.329 30.8977C116.542 30.8977 117.702 31.0398 118.81 31.3239C119.927 31.608 120.917 32.0483 121.778 32.6449C122.65 33.2415 123.336 34.0085 123.838 34.946C124.34 35.8741 124.591 36.9867 124.591 38.2841V53H118.852V49.9744H118.682C118.331 50.6562 117.863 51.2576 117.275 51.7784C116.688 52.2898 115.983 52.6922 115.159 52.9858C114.335 53.2699 113.383 53.4119 112.304 53.4119ZM114.037 49.2358C114.927 49.2358 115.713 49.0606 116.395 48.7102C117.077 48.3504 117.612 47.8674 118 47.2614C118.388 46.6553 118.582 45.9687 118.582 45.2017V42.8864C118.393 43.0095 118.132 43.1231 117.801 43.2273C117.479 43.322 117.114 43.4119 116.707 43.4972C116.3 43.5729 115.893 43.6439 115.486 43.7102C115.078 43.767 114.709 43.8191 114.378 43.8665C113.668 43.9706 113.047 44.1364 112.517 44.3636C111.987 44.5909 111.575 44.8987 111.281 45.2869C110.988 45.6657 110.841 46.1392 110.841 46.7074C110.841 47.5312 111.139 48.161 111.736 48.5966C112.342 49.0227 113.109 49.2358 114.037 49.2358ZM128.405 53V31.1818H134.172V35.0312H134.428C134.883 33.7528 135.64 32.7443 136.701 32.0057C137.761 31.267 139.03 30.8977 140.508 30.8977C142.004 30.8977 143.278 31.2718 144.329 32.0199C145.38 32.7585 146.081 33.7623 146.431 35.0312H146.658C147.103 33.7812 147.908 32.7822 149.073 32.0341C150.247 31.2765 151.635 30.8977 153.235 30.8977C155.271 30.8977 156.923 31.5464 158.192 32.8438C159.471 34.1316 160.11 35.9593 160.11 38.3267V53H154.073V39.5199C154.073 38.3078 153.751 37.3987 153.107 36.7926C152.463 36.1866 151.658 35.8835 150.692 35.8835C149.594 35.8835 148.737 36.2339 148.121 36.9347C147.506 37.6259 147.198 38.5398 147.198 39.6761V53H141.332V39.392C141.332 38.322 141.024 37.4697 140.408 36.8352C139.802 36.2008 139.002 35.8835 138.008 35.8835C137.335 35.8835 136.729 36.054 136.189 36.3949C135.659 36.7263 135.238 37.1951 134.925 37.8011C134.613 38.3977 134.457 39.0985 134.457 39.9034V53H128.405Z" fill="black"/>
</svg>
